<svg width="16" height="16" viewBox="0 0 16 16" fill="none" xmlns="http://www.w3.org/2000/svg">
  <path d="M8 0C3.582 0 0 3.582 0 8c0 3.54 2.29 6.533 5.47 7.59.4.074.547-.174.547-.386 0-.19-.007-.693-.01-1.36-2.002.364-2.958-.49-3.138-.943-.106-.272-.566-1.158-1.015-1.394-.344-.15-.834-.52-.007-.532.77-.012 1.32.708 1.5 1.002.88 1.53 2.3 1.093 2.87.833.088-.64.34-1.093.618-1.343-2.17-.246-4.44-1.085-4.44-4.82 0-1.066.38-1.936 1.002-2.615-.1-.248-.434-1.242.096-2.586 0 0 .808-.262 2.65.998.77-.215 1.59-.322 2.4-.325.81.003 1.63.11 2.4.325 1.842-1.26 2.65-.998 2.65-.998.53 1.344.2 2.338.1 2.586.62.68 1.002 1.55 1.002 2.615 0 3.744-2.27 4.57-4.45 4.81.35.3.662.894.662 1.798 0 1.298-.012 2.34-.012 2.65 0 .214.144.464.55.385C13.71 14.532 16 11.54 16 8c0-4.418-3.582-8-8-8z" fill="white"/>
</svg>